<svg width="71" height="17" viewBox="0 0 71 17" fill="none" xmlns="http://www.w3.org/2000/svg">
<g id="Group">
<path id="N" d="M6.57776 6.62014L8.46753 13.1618L7.70218 13.3876L2.65953 9.30109L2.59575 9.31991L4.07951 14.4562L3.28865 14.6894L1.39888 8.14774L2.16423 7.92199L7.22333 12.0175L7.28711 11.9987L5.79965 6.84966L6.57776 6.62014Z" fill="black"/>
<path id="V" d="M8.06985 6.29867L11.318 11.4255L11.3957 11.4074L12.0843 5.35974L12.926 5.16287L12.0118 12.3696L11.183 12.5634L7.22812 6.49555L8.06985 6.29867Z" fill="black"/>
<path id="N_2" d="M22.3783 3.71061L23.3281 10.4532L22.5383 10.5668L18.1199 5.80109L18.0541 5.81056L18.7998 11.1046L17.9837 11.222L17.0339 4.47934L17.8237 4.36573L22.2571 9.14276L22.3229 9.13329L21.5753 3.82611L22.3783 3.71061Z" fill="black"/>
<path id="e" d="M26.2394 10.3445C25.7493 10.3885 25.317 10.3182 24.9426 10.1337C24.5702 9.94676 24.2708 9.6665 24.0444 9.29291C23.82 8.91691 23.6849 8.46836 23.6391 7.94726C23.5934 7.42617 23.648 6.95838 23.8029 6.54391C23.9599 6.12703 24.1997 5.79174 24.5223 5.53804C24.8469 5.28193 25.2388 5.13328 25.698 5.0921C25.9629 5.06834 26.2284 5.08904 26.4944 5.15419C26.7605 5.21935 27.0082 5.34178 27.2376 5.5215C27.4668 5.69901 27.6586 5.94441 27.8129 6.2577C27.9673 6.571 28.0653 6.96501 28.107 7.43973L28.1361 7.77094L24.2153 8.12259L24.1559 7.44693L27.282 7.16656C27.2568 6.87952 27.1769 6.62853 27.0423 6.41361C26.9099 6.19849 26.7331 6.0352 26.512 5.92373C26.293 5.81207 26.0422 5.76891 25.7596 5.79425C25.4484 5.82217 25.1858 5.92361 24.972 6.09857C24.7602 6.27112 24.6044 6.48538 24.5045 6.74136C24.4046 6.99735 24.3669 7.26555 24.3916 7.54597L24.4311 7.9964C24.4649 8.3806 24.5597 8.70035 24.7156 8.95564C24.8736 9.20853 25.0779 9.39383 25.3285 9.51155C25.579 9.62707 25.8621 9.67067 26.1778 9.64235C26.3831 9.62394 26.566 9.5786 26.7265 9.50634C26.8891 9.43168 27.0259 9.33039 27.1371 9.20247C27.248 9.07235 27.3288 8.91599 27.3795 8.73341L28.1532 8.87767C28.0962 9.14093 27.9824 9.37813 27.8118 9.58926C27.6411 9.79819 27.4225 9.96913 27.156 10.1021C26.8893 10.2328 26.5838 10.3136 26.2394 10.3445Z" fill="black"/>
<path id="g" d="M31.1664 11.9829C30.7877 11.9984 30.4602 11.9631 30.1839 11.8768C29.9076 11.7927 29.6756 11.6758 29.4876 11.526C29.302 11.3783 29.1525 11.2181 29.0391 11.0453L29.646 10.5811C29.7206 10.6712 29.8146 10.7739 29.9279 10.889C30.0413 11.0064 30.1939 11.1055 30.3857 11.1864C30.5798 11.2693 30.8308 11.3045 31.1386 11.2919C31.5506 11.275 31.8865 11.1614 32.1465 10.9511C32.4065 10.7408 32.5279 10.423 32.5108 9.99774L32.4692 8.96124L32.4027 8.96397C32.3489 9.05935 32.2716 9.17788 32.1708 9.31955C32.0721 9.45892 31.9264 9.5858 31.7335 9.7002C31.5428 9.81228 31.2814 9.87514 30.9492 9.88877C30.5372 9.90567 30.1635 9.82339 29.8279 9.64194C29.4945 9.4604 29.2251 9.18749 29.0197 8.82323C28.8165 8.45887 28.7042 8.01092 28.6829 7.47939C28.6619 6.95671 28.7355 6.4978 28.9037 6.10268C29.0719 5.70535 29.3156 5.39365 29.6348 5.16759C29.954 4.93931 30.3283 4.81636 30.758 4.79874C31.0902 4.78511 31.356 4.82967 31.5553 4.93241C31.7568 5.03285 31.9123 5.15069 32.022 5.28595C32.1339 5.41891 32.2203 5.5285 32.2815 5.61472L32.3612 5.61145L32.3286 4.80086L33.0861 4.76979L33.2969 10.0187C33.3146 10.4573 33.2292 10.8179 33.0409 11.1007C32.855 11.3857 32.5973 11.5992 32.2681 11.7414C31.9411 11.8857 31.5739 11.9662 31.1664 11.9829ZM31.0272 9.18012C31.3417 9.16722 31.6045 9.08434 31.8158 8.93148C32.027 8.77861 32.1837 8.56477 32.2858 8.28993C32.3879 8.0151 32.4314 7.68943 32.4163 7.31293C32.4015 6.94528 32.3331 6.62309 32.2111 6.34636C32.089 6.06963 31.9163 5.85598 31.6928 5.70542C31.4694 5.55487 31.1982 5.48613 30.8793 5.49921C30.5471 5.51284 30.2737 5.60835 30.0589 5.78576C29.8465 5.96307 29.6905 6.19575 29.5912 6.48378C29.4941 6.77172 29.4524 7.08844 29.4663 7.43394C29.4806 7.7883 29.5485 8.09941 29.6702 8.36728C29.794 8.63285 29.9686 8.83865 30.1941 8.98469C30.4217 9.12842 30.6994 9.19357 31.0272 9.18012Z" fill="black"/>
<path id="o" d="M36.3045 10.0232C35.8435 10.0192 35.4399 9.90598 35.0938 9.68352C34.7499 9.46109 34.4821 9.15176 34.2904 8.75553C34.101 8.35933 34.0085 7.89746 34.013 7.36995C34.0175 6.838 34.1179 6.37449 34.3141 5.97942C34.5125 5.58437 34.7855 5.27864 35.1332 5.06222C35.483 4.84582 35.8885 4.73962 36.3495 4.74363C36.8105 4.74764 37.213 4.86086 37.5569 5.0833C37.903 5.30575 38.1708 5.61619 38.3602 6.01461C38.5519 6.41305 38.6455 6.87825 38.6409 7.4102C38.6364 7.93771 38.535 8.39789 38.3366 8.79072C38.1404 9.18357 37.8674 9.4882 37.5175 9.7046C37.1699 9.92102 36.7655 10.0272 36.3045 10.0232ZM36.3105 9.31839C36.6607 9.32143 36.9496 9.23417 37.1772 9.05661C37.4048 8.87904 37.5742 8.64444 37.6853 8.35282C37.7964 8.06119 37.8534 7.74471 37.8563 7.40337C37.8592 7.06204 37.8076 6.74351 37.7015 6.44777C37.5954 6.15204 37.4301 5.91232 37.2056 5.7286C36.9811 5.54489 36.6937 5.45151 36.3435 5.44846C35.9933 5.44541 35.7044 5.53378 35.4767 5.71357C35.2491 5.89335 35.0798 6.13016 34.9686 6.42401C34.8575 6.71785 34.8005 7.03544 34.7976 7.37677C34.7947 7.71811 34.8463 8.03553 34.9524 8.32905C35.0585 8.62256 35.2239 8.86007 35.4484 9.04157C35.673 9.22307 35.9603 9.31534 36.3105 9.31839Z" fill="black"/>
<path id="t" d="M41.9345 5.02976L41.9014 5.69389L39.2583 5.55914L39.2914 4.89501L41.9345 5.02976ZM40.1228 3.71228L40.9064 3.75223L40.6637 8.61368C40.6526 8.83506 40.6765 9.00273 40.7351 9.11669C40.7961 9.22855 40.8766 9.3059 40.9765 9.34872C41.0788 9.38945 41.1875 9.41274 41.3026 9.41861C41.3889 9.42301 41.46 9.4222 41.5158 9.41616C41.5717 9.40792 41.6164 9.40132 41.6499 9.39637L41.7742 10.1085C41.72 10.1257 41.6449 10.1418 41.5487 10.1569C41.4524 10.1742 41.3312 10.1791 41.1851 10.1717C40.9638 10.1604 40.7492 10.1017 40.5414 9.99569C40.3359 9.88978 40.1682 9.73586 40.0385 9.53394C39.911 9.33213 39.8546 9.0829 39.8695 8.78626L40.1228 3.71228Z" fill="black"/>
<path id="i" d="M43.1119 10.2516L43.5216 5.16112L44.3036 5.22538L43.8939 10.3158L43.1119 10.2516ZM43.9875 4.34539C43.8351 4.33286 43.7078 4.27014 43.6057 4.15722C43.5058 4.04449 43.4618 3.91521 43.4735 3.76939C43.4852 3.62357 43.5494 3.50319 43.666 3.40824C43.7848 3.31348 43.9204 3.27236 44.0729 3.28488C44.2253 3.29741 44.3514 3.36004 44.4513 3.47278C44.5534 3.5857 44.5986 3.71507 44.5869 3.86088C44.5751 4.0067 44.5099 4.127 44.3911 4.22176C44.2745 4.31671 44.1399 4.35792 43.9875 4.34539Z" fill="black"/>
<path id="a" d="M47.4089 10.811C47.0875 10.7725 46.803 10.677 46.5554 10.5246C46.3079 10.3699 46.1208 10.1678 45.9938 9.91815C45.8672 9.66634 45.8232 9.37533 45.8619 9.04512C45.896 8.75453 45.9809 8.52583 46.1165 8.35903C46.2524 8.19002 46.4222 8.06526 46.6258 7.98473C46.8294 7.90421 47.0497 7.85248 47.2867 7.82953C47.5262 7.80465 47.7655 7.79091 48.0046 7.78831C48.3174 7.7856 48.5706 7.78582 48.7644 7.78895C48.9607 7.79014 49.1058 7.77069 49.1998 7.73061C49.296 7.69079 49.3514 7.60814 49.3661 7.48266L49.3692 7.45624C49.4075 7.13043 49.348 6.86658 49.191 6.66471C49.0361 6.46309 48.7793 6.34079 48.4206 6.29781C48.0486 6.25324 47.7475 6.29975 47.5171 6.43734C47.2867 6.57493 47.1177 6.73104 47.0102 6.90567L46.3017 6.55289C46.4699 6.26052 46.6741 6.04166 46.9144 5.89632C47.1571 5.74904 47.4134 5.65697 47.6833 5.62011C47.9556 5.58131 48.2195 5.57721 48.4747 5.6078C48.6376 5.62731 48.8223 5.66954 49.029 5.73448C49.2381 5.79749 49.4347 5.90029 49.6188 6.04291C49.8051 6.18578 49.9502 6.38511 50.0541 6.64089C50.158 6.89666 50.1863 7.22598 50.139 7.62884L49.7468 10.9706L48.9678 10.8773L49.0484 10.1904L49.0088 10.1857C48.943 10.2894 48.8412 10.3966 48.7032 10.5073C48.5652 10.6181 48.3887 10.7052 48.1737 10.7687C47.9587 10.8322 47.7038 10.8463 47.4089 10.811ZM47.6099 10.1252C47.918 10.1621 48.1848 10.1327 48.4102 10.0369C48.6379 9.94143 48.8169 9.80438 48.9472 9.62578C49.0798 9.44744 49.1584 9.2526 49.1832 9.04127L49.2669 8.328C49.2293 8.36367 49.1524 8.39129 49.0363 8.41087C48.9226 8.4285 48.7917 8.44072 48.6436 8.44753C48.498 8.45241 48.3559 8.45547 48.2174 8.45673C48.0814 8.45606 47.9709 8.45621 47.8859 8.4572C47.6804 8.45935 47.4861 8.4796 47.303 8.51794C47.1224 8.55435 46.9714 8.62443 46.8499 8.72818C46.7308 8.83 46.6596 8.97997 46.6364 9.1781C46.6046 9.44887 46.6807 9.6656 46.8647 9.82829C47.0512 9.98904 47.2995 10.088 47.6099 10.1252Z" fill="black"/>
<path id="t_2" d="M53.8465 6.48312L53.7426 7.1399L51.1299 6.71763L51.2339 6.06084L53.8465 6.48312ZM52.1866 4.97544L52.9612 5.10063L52.2002 9.90828C52.1656 10.1272 52.1713 10.2965 52.2174 10.4163C52.2661 10.5341 52.3378 10.6198 52.4326 10.6733C52.5299 10.725 52.6354 10.76 52.7492 10.7784C52.8345 10.7922 52.9053 10.7991 52.9614 10.7992C53.0178 10.7971 53.0629 10.7954 53.0968 10.7941L53.1441 11.5158C53.0885 11.527 53.0121 11.5349 52.9149 11.5394C52.8173 11.546 52.6963 11.5377 52.5519 11.5144C52.3331 11.479 52.1261 11.3973 51.931 11.2692C51.738 11.1415 51.5878 10.9701 51.4805 10.7552C51.3753 10.5406 51.3459 10.2866 51.3924 9.99326L52.1866 4.97544Z" fill="black"/>
<path id="i_2" d="M54.4587 11.8047L55.4103 6.78724L56.1807 6.93641L55.2291 11.9539L54.4587 11.8047ZM55.9606 6.02685C55.8105 5.99777 55.6907 5.92152 55.6013 5.7981C55.5141 5.6751 55.4841 5.54173 55.5114 5.398C55.5386 5.25427 55.6153 5.14155 55.7413 5.05985C55.8695 4.97857 56.0087 4.95247 56.1589 4.98154C56.309 5.01062 56.4277 5.08666 56.5149 5.20966C56.6043 5.33308 56.6354 5.46666 56.6081 5.61039C56.5809 5.75412 56.5031 5.86662 56.3749 5.9479C56.2489 6.02961 56.1108 6.05592 55.9606 6.02685Z" fill="black"/>
<path id="o_2" d="M59.2252 12.9469C58.7763 12.8419 58.4069 12.6428 58.1171 12.3496C57.8294 12.057 57.6346 11.6962 57.5328 11.2672C57.4331 10.8387 57.4421 10.3673 57.5599 9.8531C57.6787 9.33456 57.8763 8.90388 58.1526 8.56105C58.4311 8.21873 58.7632 7.98 59.1489 7.84485C59.5368 7.71021 59.9552 7.69538 60.4041 7.80038C60.853 7.90538 61.2213 8.1042 61.509 8.39685C61.7989 8.69 61.9934 9.05191 62.0926 9.48257C62.1939 9.91373 62.1852 10.3886 62.0664 10.9071C61.9486 11.4213 61.7507 11.8485 61.4727 12.1887C61.1968 12.5294 60.865 12.767 60.4771 12.9017C60.0914 13.0368 59.6741 13.0519 59.2252 12.9469ZM59.3826 12.2598C59.7236 12.3396 60.0242 12.3177 60.2845 12.1942C60.5447 12.0707 60.7604 11.8787 60.9314 11.6182C61.1025 11.3577 61.2262 11.0612 61.3024 10.7284C61.3786 10.3957 61.3967 10.0733 61.3568 9.76119C61.3169 9.4491 61.2071 9.17873 61.0276 8.95007C60.848 8.72141 60.5877 8.5672 60.2467 8.48745C59.9057 8.40769 59.6048 8.43065 59.3441 8.55632C59.0834 8.682 58.8672 8.87615 58.6956 9.13877C58.5241 9.40139 58.4002 9.69907 58.324 10.0318C58.2477 10.3645 58.2298 10.6859 58.2703 10.9958C58.3107 11.3057 58.4209 11.5739 58.601 11.8004C58.7811 12.0269 59.0416 12.1801 59.3826 12.2598Z" fill="black"/>
<path id="n" d="M63.8708 10.8812L63.0398 13.8388L62.2856 13.6224L63.667 8.70586L64.3957 8.91491L64.1798 9.68311L64.2437 9.70145C64.4289 9.48479 64.66 9.33433 64.9369 9.25006C65.2145 9.16366 65.5386 9.17364 65.9093 9.27999C66.2417 9.37535 66.5133 9.52707 66.7242 9.73516C66.9357 9.94111 67.0721 10.2016 67.1332 10.5166C67.195 10.8295 67.1671 11.195 67.0496 11.6133L66.1718 14.7373L65.4176 14.5209L66.2809 11.4481C66.3895 11.0619 66.3739 10.7323 66.2341 10.4593C66.095 10.1842 65.8508 9.99647 65.5013 9.89623C65.2606 9.82715 65.0307 9.8177 64.8117 9.86786C64.5948 9.91863 64.4039 10.0287 64.2389 10.1981C64.0739 10.3675 63.9512 10.5952 63.8708 10.8812Z" fill="black"/>
</g>
</svg>
